<svg width="71" height="71" viewBox="0 0 71 71" fill="none" xmlns="http://www.w3.org/2000/svg">
<path d="M33.7153 68.1742V67.5142H34.8973V63.9742H35.5873V67.5142H36.7753V68.1742H33.7153Z" fill="white"/>
<path d="M30.1214 67.9579L29.4378 67.864L30.0097 63.7031L30.6933 63.797L30.4457 65.5981L32.229 65.8432L32.4765 64.0421L33.1601 64.1361L32.5882 68.297L31.9046 68.203L32.1391 66.4971L30.3559 66.252L30.1214 67.9579Z" fill="white"/>
<path d="M27.85 63.8383L26.0589 63.3364L26.237 62.7009L28.6924 63.3889L27.5593 67.4332L25.1327 66.7533L25.3108 66.1177L27.0729 66.6115L27.3676 65.56L25.7499 65.1067L25.9263 64.477L27.544 64.9302L27.85 63.8383Z" fill="white"/>
<path d="M18.2374 63.5214C17.7452 63.2221 17.4418 62.8011 17.327 62.2585C17.2088 61.7138 17.3035 61.1886 17.6111 60.6827C17.9166 60.1803 18.3394 59.8546 18.8795 59.7055C19.4141 59.5578 19.9275 59.6335 20.4196 59.9328L21.8294 60.7901L19.6472 64.3787L18.2374 63.5214ZM20.0767 60.4967C19.7383 60.291 19.3925 60.2399 19.0393 60.3434C18.6827 60.4449 18.3963 60.6733 18.1801 61.0288C17.9619 61.3876 17.8908 61.747 17.9669 62.1069C18.0375 62.4682 18.2419 62.7517 18.5803 62.9575L19.4005 63.4563L20.8969 60.9955L20.0767 60.4967Z" fill="white"/>
<path d="M17.0992 58.4145L15.6563 57.2407L16.0728 56.7288L18.0509 58.338L15.4003 61.596L13.4456 60.0057L13.8621 59.4937L15.2816 60.6486L15.9708 59.8015L14.6676 58.7413L15.0803 58.234L16.3835 59.2942L17.0992 58.4145Z" fill="white"/>
<path d="M10.6868 57.2028L10.2158 56.6985L13.2853 53.8318L13.6539 54.2264L12.9225 57.6187L15.0054 55.6735L15.4763 56.1777L12.4068 59.0445L12.0382 58.6498L12.7697 55.2575L10.6868 57.2028Z" fill="white"/>
<path d="M7.48349 52.9835L8.02269 52.6029L8.70433 53.5685L11.5964 51.5271L11.9943 52.0908L9.10224 54.1322L9.78733 55.1028L9.24813 55.4834L7.48349 52.9835Z" fill="white"/>
<path d="M6.93484 45.2363C7.00449 45.4323 6.99504 45.6266 6.90649 45.8194C6.81283 46.0098 6.668 46.1398 6.47201 46.2094C6.27979 46.2778 6.09106 46.2663 5.90581 46.1751C5.72056 46.0838 5.59244 45.9383 5.52145 45.7386C5.45313 45.5464 5.4627 45.3583 5.55017 45.1744C5.63763 44.9905 5.77747 44.8644 5.96969 44.7961C6.16945 44.7251 6.36317 44.7326 6.55085 44.8187C6.73853 44.9049 6.86652 45.044 6.93484 45.2363Z" fill="white"/>
<path d="M2.35615 35.8334L3.01462 35.7884L3.09528 36.9676L6.62703 36.7261L6.67411 37.4145L3.14237 37.656L3.22344 38.8413L2.56498 38.8863L2.35615 35.8334Z" fill="white"/>
<path d="M2.5329 32.0997L2.57999 31.4113L6.7702 31.698L6.72311 32.3864L4.90935 32.2623L4.78652 34.0581L6.60028 34.1822L6.55319 34.8705L2.36298 34.5839L2.41007 33.8955L4.12805 34.0131L4.25089 32.2172L2.5329 32.0997Z" fill="white"/>
<path d="M6.48798 29.5523L6.86641 27.7312L7.51261 27.8655L6.99379 30.3622L2.88164 29.5076L3.39435 27.0404L4.04055 27.1746L3.66822 28.9664L4.73738 29.1885L5.07919 27.5437L5.71951 27.6767L5.3777 29.3216L6.48798 29.5523Z" fill="white"/>
<path d="M6.14805 19.9406C6.41304 19.4292 6.81231 19.0977 7.34584 18.9462C7.88121 18.7911 8.41171 18.8497 8.93734 19.1221C9.45941 19.3926 9.81325 19.7922 9.99884 20.3208C10.1827 20.8441 10.1422 21.3614 9.87716 21.8729L9.11806 23.3379L5.38894 21.4056L6.14805 19.9406ZM9.29116 21.5692C9.47335 21.2176 9.50073 20.8692 9.37333 20.5238C9.24776 20.1749 9.00029 19.9048 8.63093 19.7134C8.25802 19.5202 7.89462 19.4738 7.54073 19.5742C7.18513 19.6693 6.91624 19.8926 6.73405 20.2442L6.29239 21.0966L8.8495 22.4216L9.29116 21.5692Z" fill="white"/>
<path d="M11.1652 18.4565L12.2379 16.9369L12.7771 17.3175L11.3065 19.4008L7.87525 16.9787L9.32849 14.92L9.86769 15.3006L8.81236 16.7956L9.7045 17.4254L10.6733 16.0529L11.2076 16.43L10.2388 17.8025L11.1652 18.4565Z" fill="white"/>
<path d="M11.9367 11.9764L12.4076 11.4721L15.4771 14.3389L15.1085 14.7335L11.6742 14.2353L13.7571 16.1806L13.2861 16.6848L10.2166 13.8181L10.5852 13.4235L14.0195 13.9217L11.9367 11.9764Z" fill="white"/>
<path d="M15.9275 8.49254L16.344 9.00451L15.4271 9.75046L17.6612 12.4965L17.1259 12.9319L14.8919 10.1859L13.9703 10.9356L13.5538 10.4237L15.9275 8.49254Z" fill="white"/>
<path d="M27.5214 6.05471C27.3211 6.11083 27.1278 6.08814 26.9415 5.98663C26.758 5.8802 26.6382 5.72684 26.5821 5.52655C26.527 5.33012 26.5513 5.14261 26.655 4.96402C26.7587 4.78543 26.9126 4.66753 27.1167 4.61033C27.3131 4.5553 27.5001 4.57768 27.6776 4.67749C27.8551 4.7773 27.9714 4.92542 28.0264 5.12186C28.0836 5.326 28.0629 5.51875 27.9641 5.70011C27.8654 5.88147 27.7178 5.99967 27.5214 6.05471Z" fill="white"/>
<path d="M37.2783 1.82582V2.48582L36.0963 2.48582V6.02582L35.4063 6.02582V2.48582L34.2183 2.48582V1.82582L37.2783 1.82582Z" fill="white"/>
<path d="M40.9277 2.5596L41.6113 2.65355L41.0394 6.81443L40.3558 6.72048L40.6033 4.91941L38.8201 4.67431L38.5725 6.47538L37.889 6.38142L38.4609 2.22054L39.1444 2.3145L38.91 4.02046L40.6932 4.26556L40.9277 2.5596Z" fill="white"/>
<path d="M43.1992 6.67913L44.9903 7.18095L44.8122 7.81647L42.3568 7.12849L43.4899 3.08424L45.9165 3.76413L45.7384 4.39965L43.9763 3.90593L43.6816 4.95743L45.2993 5.41069L45.1229 6.04044L43.5052 5.58718L43.1992 6.67913Z" fill="white"/>
<path d="M52.8117 6.99595C53.3039 7.29524 53.6073 7.71619 53.7221 8.25882C53.8403 8.80352 53.7456 9.32878 53.438 9.8346C53.1325 10.337 52.7097 10.6627 52.1696 10.8118C51.635 10.9596 51.1216 10.8838 50.6295 10.5845L49.2197 9.7272L51.4019 6.13864L52.8117 6.99595ZM50.9724 10.0206C51.3107 10.2264 51.6565 10.2775 52.0097 10.1739C52.3664 10.0724 52.6528 9.84399 52.8689 9.48856C53.0872 9.1297 53.1582 8.77031 53.0822 8.41039C53.0116 8.04913 52.8071 7.76563 52.4688 7.55987L51.6485 7.06107L50.1521 9.5218L50.9724 10.0206Z" fill="white"/>
<path d="M53.9499 12.1028L55.3927 13.2767L54.9762 13.7886L52.9982 12.1794L55.6487 8.92138L57.6035 10.5117L57.187 11.0237L55.7675 9.8688L55.0783 10.7159L56.3815 11.7761L55.9688 12.2834L54.6656 11.2232L53.9499 12.1028Z" fill="white"/>
<path d="M60.3623 13.3146L60.8332 13.8189L57.7637 16.6856L57.3952 16.291L58.1266 12.8987L56.0437 14.8439L55.5727 14.3397L58.6423 11.4729L59.0108 11.8676L58.2794 15.2599L60.3623 13.3146Z" fill="white"/>
<path d="M63.5657 17.5339L63.0265 17.9145L62.3449 16.9488L59.4528 18.9903L59.0549 18.4266L61.947 16.3851L61.2619 15.4145L61.8011 15.0339L63.5657 17.5339Z" fill="white"/>
<path d="M65.2067 29.2671C65.1644 29.0634 65.2002 28.8721 65.3142 28.6932C65.4329 28.5174 65.5941 28.4083 65.7977 28.366C65.9974 28.3245 66.1829 28.3615 66.354 28.4771C66.5251 28.5927 66.6322 28.7543 66.6753 28.9619C66.7168 29.1616 66.6817 29.3466 66.57 29.5169C66.4583 29.6872 66.3026 29.7931 66.1029 29.8346C65.8953 29.8777 65.7044 29.8439 65.5302 29.733C65.356 29.6221 65.2482 29.4668 65.2067 29.2671Z" fill="white"/>
<path d="M68.4623 39.2059L67.8038 39.1608L67.8845 37.9816L64.3528 37.74L64.3998 37.0516L67.9316 37.2932L68.0127 36.1079L68.6711 36.153L68.4623 39.2059Z" fill="white"/>
<path d="M67.7788 42.8807L67.6384 43.5563L63.5262 42.7017L63.6666 42.0262L65.4466 42.3961L65.8128 40.6337L64.0328 40.2638L64.1732 39.5883L68.2854 40.4428L68.145 41.1183L66.459 40.768L66.0928 42.5303L67.7788 42.8807Z" fill="white"/>
<path d="M63.5137 44.8658L62.8908 46.6184L62.2689 46.3974L63.1229 43.9946L67.0804 45.4011L66.2365 47.7756L65.6146 47.5546L66.2274 45.8303L65.1985 45.4646L64.6359 47.0476L64.0196 46.8286L64.5822 45.2456L63.5137 44.8658Z" fill="white"/>
<path d="M62.5416 54.4343C62.2095 54.9049 61.7688 55.1789 61.2196 55.2564C60.6681 55.3371 60.1505 55.2068 59.6669 54.8654C59.1865 54.5263 58.8904 54.0823 58.7785 53.5333C58.6676 52.9899 58.7782 52.4829 59.1104 52.0123L60.0619 50.6643L63.4932 53.0863L62.5416 54.4343ZM59.6496 52.3929C59.4212 52.7164 59.3466 53.0579 59.4258 53.4174C59.5027 53.7801 59.7111 54.0814 60.0509 54.3213C60.3941 54.5635 60.7478 54.659 61.112 54.6076C61.4773 54.5619 61.7741 54.3773 62.0024 54.0537L62.556 53.2694L60.2032 51.6086L59.6496 52.3929Z" fill="white"/>
<path d="M57.3691 55.2214L56.0996 56.5808L55.6172 56.1303L57.3577 54.2666L60.4272 57.1334L58.7072 58.9751L58.2248 58.5246L59.4739 57.1871L58.6758 56.4418L57.5291 57.6696L57.0512 57.2232L58.1979 55.9954L57.3691 55.2214Z" fill="white"/>
<path d="M55.7224 61.5361L55.1872 61.9715L52.5366 58.7135L52.9555 58.3727L56.29 59.334L54.4914 57.1232L55.0266 56.6877L57.6772 59.9457L57.2583 60.2865L53.9238 59.3253L55.7224 61.5361Z" fill="white"/>
<path d="M51.2945 64.4441L50.9516 63.8802L51.9615 63.266L50.1222 60.2414L50.7117 59.8829L52.551 62.9075L53.5661 62.2903L53.909 62.8542L51.2945 64.4441Z" fill="white"/>
<path d="M39.4766 65.2805C39.6826 65.2522 39.871 65.301 40.0418 65.4269C40.2091 65.5574 40.3069 65.7256 40.3352 65.9317C40.363 66.1338 40.3134 66.3162 40.1864 66.479C40.0594 66.6418 39.8909 66.7377 39.6808 66.7666C39.4787 66.7943 39.2965 66.7467 39.1343 66.6236C38.972 66.5006 38.877 66.338 38.8492 66.1359C38.8203 65.9259 38.8672 65.7378 38.9897 65.5715C39.1122 65.4053 39.2745 65.3083 39.4766 65.2805Z" fill="white"/>
</svg>
