<svg width="140" height="140" viewBox="0 0 140 140" fill="none" xmlns="http://www.w3.org/2000/svg">
<path d="M65.9402 135.4V134.08H68.3042V127H69.6842V134.08H72.0602V135.4H65.9402Z" fill="white"/>
<path d="M58.81 134.969L57.4428 134.781L58.5866 126.459L59.9538 126.647L59.4587 130.249L63.0251 130.739L63.5202 127.137L64.8874 127.325L63.7436 135.647L62.3764 135.459L62.8454 132.047L59.2789 131.557L58.81 134.969Z" fill="white"/>
<path d="M54.3287 126.743L50.7467 125.739L51.1028 124.468L56.0137 125.844L53.7474 133.932L48.8943 132.573L49.2504 131.301L52.7747 132.289L53.3639 130.186L50.1285 129.279L50.4814 128.02L53.7168 128.926L54.3287 126.743Z" fill="white"/>
<path d="M35.2152 126.158C34.2309 125.559 33.624 124.717 33.3944 123.632C33.158 122.543 33.3475 121.492 33.9626 120.481C34.5737 119.476 35.4193 118.824 36.4995 118.526C37.5686 118.231 38.5954 118.382 39.5797 118.981L42.3992 120.695L38.0347 127.873L35.2152 126.158ZM38.8938 120.109C38.2171 119.697 37.5255 119.595 36.8191 119.802C36.1058 120.005 35.533 120.462 35.1007 121.173C34.6643 121.89 34.5221 122.609 34.6743 123.329C34.8154 124.052 35.2243 124.619 35.901 125.03L37.5415 126.028L40.5343 121.106L38.8938 120.109Z" fill="white"/>
<path d="M32.9887 115.98L30.103 113.632L30.9361 112.608L34.8922 115.827L29.591 122.343L25.6815 119.162L26.5145 118.138L29.3536 120.448L30.7319 118.754L28.1255 116.633L28.951 115.619L31.5574 117.739L32.9887 115.98Z" fill="white"/>
<path d="M20.2069 113.596L19.265 112.588L25.404 106.854L26.1412 107.644L24.6783 114.428L28.8441 110.538L29.786 111.546L23.647 117.28L22.9098 116.491L24.3727 109.706L20.2069 113.596Z" fill="white"/>
<path d="M13.84 105.207L14.9184 104.446L16.2817 106.377L22.0658 102.294L22.8616 103.422L17.0775 107.505L18.4477 109.446L17.3693 110.207L13.84 105.207Z" fill="white"/>
<path d="M12.7983 89.8212C12.9376 90.2131 12.9187 90.6019 12.7416 90.9875C12.5543 91.3682 12.2646 91.6282 11.8727 91.7675C11.4882 91.9042 11.1108 91.8812 10.7403 91.6988C10.3698 91.5163 10.1135 91.2253 9.97153 90.8258C9.8349 90.4414 9.85405 90.0652 10.029 89.6974C10.2039 89.3296 10.4836 89.0774 10.868 88.9407C11.2675 88.7988 11.655 88.8139 12.0303 88.9861C12.4057 89.1584 12.6617 89.4367 12.7983 89.8212Z" fill="white"/>
<path d="M3.66527 71.135L4.98219 71.0449L5.14352 73.4034L12.207 72.9202L12.3012 74.297L5.23769 74.7802L5.39983 77.1506L4.08291 77.2407L3.66527 71.135Z" fill="white"/>
<path d="M4.01868 63.7266L4.11285 62.3499L12.4933 62.9231L12.3991 64.2999L8.77157 64.0517L8.5259 67.6434L12.1534 67.8915L12.0593 69.2683L3.67883 68.695L3.77301 67.3182L7.20898 67.5533L7.45465 63.9617L4.01868 63.7266Z" fill="white"/>
<path d="M11.92 58.6944L12.6768 55.0522L13.9692 55.3207L12.9316 60.3141L4.70729 58.605L5.73271 53.6705L7.0251 53.939L6.28045 57.5225L8.41877 57.9668L9.10239 54.6771L10.383 54.9432L9.69942 58.2329L11.92 58.6944Z" fill="white"/>
<path d="M11.1989 39.5857C11.7289 38.5628 12.5274 37.8999 13.5945 37.5968C14.6652 37.2866 15.7262 37.4039 16.7775 37.9486C17.8216 38.4897 18.5293 39.2888 18.9005 40.3462C19.2683 41.3927 19.1871 42.4274 18.6571 43.4502L17.1389 46.3802L9.68069 42.5157L11.1989 39.5857ZM17.4851 42.8429C17.8495 42.1397 17.9043 41.4428 17.6495 40.7521C17.3983 40.0543 16.9034 39.5141 16.1647 39.1313C15.4189 38.7448 14.6921 38.6521 13.9843 38.853C13.2731 39.0431 12.7353 39.4897 12.3709 40.193L11.4876 41.8977L16.6018 44.5477L17.4851 42.8429Z" fill="white"/>
<path d="M21.2012 36.6696L23.3465 33.6305L24.4249 34.3917L21.4838 38.5582L14.6213 33.7141L17.5277 29.5966L18.6061 30.3578L16.4955 33.3479L18.2797 34.6074L20.2174 31.8624L21.286 32.6167L19.3483 35.3617L21.2012 36.6696Z" fill="white"/>
<path d="M22.7067 23.7551L23.6486 22.7465L29.7877 28.48L29.0505 29.2693L22.1818 28.2729L26.3476 32.1634L25.4057 33.172L19.2666 27.4385L20.0038 26.6492L26.8725 27.6457L22.7067 23.7551Z" fill="white"/>
<path d="M30.642 16.8305L31.475 17.8544L29.6412 19.3463L34.1093 24.8383L33.0389 25.7092L28.5708 20.2172L26.7277 21.7167L25.8946 20.6927L30.642 16.8305Z" fill="white"/>
<path d="M53.6676 12.0379C53.267 12.1501 52.8805 12.1047 52.5079 11.9017C52.1408 11.6888 51.9012 11.3821 51.7889 10.9815C51.6789 10.5887 51.7275 10.2137 51.9348 9.85647C52.1421 9.49929 52.4499 9.2635 52.8582 9.14911C53.2511 9.03903 53.625 9.0838 53.9801 9.28342C54.3351 9.48304 54.5676 9.77929 54.6777 10.1722C54.7921 10.5804 54.7506 10.9659 54.5531 11.3287C54.3556 11.6914 54.0605 11.9278 53.6676 12.0379Z" fill="white"/>
<path d="M73.0598 3.6V4.92L70.6958 4.92V12L69.3158 12V4.92L66.9398 4.92V3.6L73.0598 3.6Z" fill="white"/>
<path d="M80.3005 5.05949L81.6677 5.2474L80.5239 13.5692L79.1567 13.3813L79.6518 9.77912L76.0853 9.28892L75.5902 12.8911L74.2231 12.7031L75.3669 4.38138L76.734 4.56929L76.2651 7.98122L79.8315 8.47142L80.3005 5.05949Z" fill="white"/>
<path d="M84.7817 13.2856L88.3638 14.2893L88.0077 15.5603L83.0968 14.1844L85.3631 6.09586L90.2162 7.45563L89.86 8.72668L86.3358 7.73923L85.7465 9.84224L88.9819 10.7488L88.629 12.0083L85.3936 11.1017L84.7817 13.2856Z" fill="white"/>
<path d="M103.895 13.8702C104.879 14.4687 105.486 15.3107 105.716 16.3959C105.952 17.4853 105.763 18.5358 105.148 19.5475C104.537 20.5523 103.691 21.2038 102.611 21.5019C101.542 21.7974 100.515 21.6459 99.5307 21.0473L96.7111 19.3327L101.076 12.1556L103.895 13.8702ZM100.217 19.9195C100.893 20.331 101.585 20.4332 102.291 20.2261C103.005 20.0232 103.577 19.5663 104.01 18.8554C104.446 18.1377 104.588 17.4189 104.436 16.6991C104.295 15.9765 103.886 15.4095 103.209 14.998L101.569 14.0004L98.5761 18.9219L100.217 19.9195Z" fill="white"/>
<path d="M106.122 24.0484L109.007 26.3961L108.174 27.42L104.218 24.2015L109.519 17.6855L113.429 20.8662L112.596 21.8901L109.757 19.5803L108.379 21.2745L110.985 23.3949L110.16 24.4096L107.553 22.2891L106.122 24.0484Z" fill="white"/>
<path d="M118.903 26.4316L119.845 27.4402L113.706 33.1736L112.969 32.3843L114.432 25.5997L110.266 29.4902L109.324 28.4817L115.463 22.7482L116.201 23.5375L114.738 30.3222L118.903 26.4316Z" fill="white"/>
<path d="M125.27 34.821L124.192 35.5822L122.829 33.6509L117.045 37.7338L116.249 36.6064L122.033 32.5235L120.663 30.5824L121.741 29.8211L125.27 34.821Z" fill="white"/>
<path d="M128.481 58.1198C128.396 57.7125 128.468 57.33 128.695 56.9721C128.933 56.6204 129.255 56.4023 129.663 56.3177C130.062 56.2346 130.433 56.3087 130.775 56.54C131.117 56.7712 131.331 57.0943 131.418 57.5095C131.501 57.9089 131.431 58.279 131.207 58.6195C130.984 58.9601 130.672 59.1719 130.273 59.2549C129.858 59.3412 129.476 59.2734 129.128 59.0517C128.779 58.8299 128.564 58.5193 128.481 58.1198Z" fill="white"/>
<path d="M134.984 77.8757L133.667 77.7857L133.828 75.4272L126.765 74.944L126.859 73.5672L133.923 74.0504L134.085 71.6799L135.402 71.77L134.984 77.8757Z" fill="white"/>
<path d="M133.625 85.1669L133.344 86.518L125.12 84.809L125.401 83.4578L128.961 84.1976L129.693 80.6729L126.133 79.9331L126.414 78.582L134.638 80.291L134.358 81.6422L130.986 80.9415L130.253 84.4662L133.625 85.1669Z" fill="white"/>
<path d="M125.112 89.0764L123.867 92.5816L122.623 92.1396L124.331 87.334L132.246 90.147L130.558 94.896L129.314 94.454L130.54 91.0053L128.482 90.2739L127.357 93.4399L126.124 93.0019L127.249 89.8359L125.112 89.0764Z" fill="white"/>
<path d="M123.225 108.105C122.56 109.047 121.679 109.595 120.58 109.75C119.477 109.911 118.442 109.65 117.475 108.968C116.514 108.289 115.922 107.401 115.698 106.303C115.476 105.216 115.698 104.202 116.362 103.261L118.265 100.565L125.128 105.409L123.225 108.105ZM117.44 104.023C116.984 104.67 116.835 105.353 116.993 106.071C117.147 106.797 117.563 107.4 118.243 107.879C118.929 108.364 119.637 108.555 120.365 108.452C121.096 108.361 121.689 107.991 122.146 107.344L123.253 105.776L118.548 102.454L117.44 104.023Z" fill="white"/>
<path d="M112.918 109.632L110.379 112.351L109.414 111.45L112.896 107.723L119.035 113.456L115.594 117.14L114.63 116.239L117.128 113.564L115.532 112.073L113.238 114.529L112.282 113.636L114.576 111.18L112.918 109.632Z" fill="white"/>
<path d="M109.668 122.221L108.598 123.092L103.297 116.576L104.134 115.895L110.804 117.817L107.206 113.396L108.277 112.525L113.578 119.041L112.74 119.722L106.071 117.8L109.668 122.221Z" fill="white"/>
<path d="M100.864 128.001L100.178 126.873L102.198 125.645L98.5195 119.596L99.6986 118.879L103.377 124.928L105.407 123.693L106.093 124.821L100.864 128.001Z" fill="white"/>
<path d="M77.4004 129.614C77.8125 129.557 78.1893 129.655 78.5308 129.907C78.8654 130.167 79.0611 130.504 79.1177 130.916C79.1733 131.32 79.074 131.685 78.82 132.011C78.566 132.336 78.2289 132.528 77.8089 132.586C77.4047 132.641 77.0403 132.546 76.7158 132.3C76.3913 132.054 76.2012 131.729 76.1457 131.325C76.0879 130.905 76.1816 130.528 76.4266 130.196C76.6716 129.863 76.9962 129.669 77.4004 129.614Z" fill="white"/>
</svg>
