<svg width="23" height="24" viewBox="0 0 23 24" fill="none" xmlns="http://www.w3.org/2000/svg">
<g clip-path="url(#clip0_26_466)">
<path fill-rule="evenodd" clip-rule="evenodd" d="M4.94845 12.4168C4.94845 11.6865 5.06976 10.9862 5.28626 10.3295L1.49662 7.43555C0.758042 8.93515 0.341919 10.6249 0.341919 12.4168C0.341919 14.2073 0.757531 15.896 1.49509 17.3945L5.28268 14.495C5.06822 13.8413 4.94845 13.1436 4.94845 12.4168Z" fill="#FBBC05"/>
<path fill-rule="evenodd" clip-rule="evenodd" d="M11.6023 5.77236C13.189 5.77236 14.6221 6.33459 15.7482 7.25459L19.0239 3.98347C17.0278 2.2457 14.4686 1.17236 11.6023 1.17236C7.15238 1.17236 3.32794 3.71719 1.49658 7.43552L5.28622 10.3294C6.15942 7.67881 8.64848 5.77236 11.6023 5.77236Z" fill="#EB4335"/>
<path fill-rule="evenodd" clip-rule="evenodd" d="M11.6023 19.0612C8.64848 19.0612 6.15942 17.1548 5.28622 14.5042L1.49658 17.3976C3.32794 21.1164 7.15238 23.6612 11.6023 23.6612C14.3488 23.6612 16.971 22.686 18.939 20.8588L15.3418 18.0778C14.3268 18.7172 13.0487 19.0612 11.6023 19.0612Z" fill="#34A853"/>
<path fill-rule="evenodd" clip-rule="evenodd" d="M22.3509 12.4168C22.3509 11.7523 22.2485 11.0368 22.095 10.3723H11.6023V14.7168H17.642C17.34 16.198 16.518 17.3367 15.3418 18.0778L18.939 20.8588C21.0063 18.9401 22.3509 16.0819 22.3509 12.4168Z" fill="#4285F4"/>
</g>
<defs>
<clipPath id="clip0_26_466">
<rect width="23" height="23" fill="white" transform="translate(0 0.916748)"/>
</clipPath>
</defs>
</svg>
