<svg width="64" height="61" viewBox="0 0 64 61" fill="none" xmlns="http://www.w3.org/2000/svg">
<path d="M62.2705 10.8949C61.3154 10.8949 60.541 11.6501 60.541 12.5816C60.541 26.8448 47.8749 38.449 32.3062 38.449C16.7376 38.449 4.07151 26.8448 4.07151 12.5816C4.07151 12.5688 4.06997 12.5566 4.06971 12.5441C4.09071 7.48372 8.31803 3.37324 13.5118 3.37324C15.4233 3.37324 17.2596 3.92671 18.8281 4.97299C19.1422 5.23088 19.4686 5.47628 19.7968 5.69373C21.9469 7.1407 24.4724 7.90538 27.0995 7.90538C29.6776 7.90538 32.1654 7.16591 34.2943 5.76688C34.3005 5.76313 34.3064 5.75914 34.3125 5.75539C34.3176 5.7519 34.3227 5.7479 34.3279 5.74441C34.3291 5.74366 34.3307 5.74316 34.332 5.74216C34.335 5.74016 34.3378 5.73742 34.3409 5.73542C34.7178 5.48577 35.0826 5.2134 35.4297 4.92581C36.9787 3.92272 38.783 3.39171 40.6526 3.39171C45.8596 3.39171 50.0954 7.52266 50.0954 12.6003C50.0954 13.532 50.8701 14.2869 51.8249 14.2869C52.7801 14.2869 53.5545 13.532 53.5545 12.6003C53.5545 5.66253 47.7668 0.0184468 40.6526 0.0184468C38.0706 0.0184468 35.5779 0.759409 33.4442 2.16144C33.428 2.17193 33.4122 2.18291 33.3965 2.19364C33.0253 2.44005 32.6659 2.70917 32.3231 2.99252C30.7759 3.99886 28.9711 4.53236 27.0995 4.53236C25.1935 4.53236 23.3636 3.98163 21.7921 2.9361C21.4813 2.68321 21.1582 2.44055 20.8277 2.21836C18.6727 0.767148 16.1429 -2.66192e-05 13.5118 -2.66192e-05C6.39752 -2.66192e-05 0.609619 5.6443 0.609619 12.5821C0.609619 12.608 0.612437 12.6332 0.613717 12.659C0.659285 28.7469 14.8583 41.8223 32.3062 41.8223C49.7823 41.8223 64 28.7049 64 12.5816C64 11.6501 63.2256 10.8949 62.2705 10.8949Z" fill="white"/>
<path d="M48.4651 42.5457C47.6078 42.1342 46.5712 42.4795 46.1504 43.3158C42.8825 49.804 39.0238 55.462 38.4071 56.1693C38.3913 56.1875 38.3813 56.2082 38.3664 56.2267C38.3516 56.2452 38.3334 56.2597 38.3193 56.2789C38.1061 56.569 37.8429 56.8219 37.5321 57.0343C36.9694 57.422 36.3041 57.627 35.6086 57.627C33.7584 57.627 32.2532 56.1603 32.2532 54.3578C32.2532 54.2987 32.2501 54.2402 32.2439 54.1826C32.1485 51.4369 29.8345 49.2308 26.9962 49.2308C24.0978 49.2308 21.7398 51.5303 21.7398 54.3571C21.7398 54.3573 21.7398 54.3578 21.7398 54.3578C21.7398 56.1603 20.2345 57.627 18.3846 57.627C17.6891 57.627 17.0237 57.422 16.4552 57.0301C16.1498 56.8216 15.8871 56.569 15.6736 56.2789C15.6595 56.2599 15.6416 56.2457 15.6267 56.2272C15.6119 56.2085 15.6019 56.1878 15.586 56.1698C14.3977 54.8059 4.72653 40.1837 3.44244 31.2393C3.31008 30.3168 2.4361 29.6745 1.48993 29.8028C0.544006 29.9319 -0.115452 30.7844 0.0168995 31.7071C1.43539 41.5883 11.4563 56.6396 12.9503 58.354C12.9508 58.3545 12.9513 58.355 12.9518 58.3555C13.377 58.9082 13.8849 59.3933 14.4653 59.7894C15.615 60.5813 16.9705 61 18.3846 61C22.1419 61 25.1988 58.0204 25.1988 54.3578C25.1988 54.3578 25.1988 54.3576 25.1988 54.3573C25.1988 53.3904 26.0052 52.6038 26.9962 52.6038C27.9874 52.6038 28.7941 53.3902 28.7941 54.3571C28.7941 54.3608 28.7946 54.3643 28.7946 54.3681C28.8002 58.0259 31.8546 61 35.6086 61C37.0227 61 38.378 60.5813 39.5223 59.7932C40.1077 59.3933 40.6159 58.9082 41.0411 58.3557C41.0416 58.3552 41.0422 58.3547 41.0427 58.3542C41.9963 57.26 46.0549 51.1568 49.2549 44.803C49.676 43.9669 49.3225 42.9563 48.4651 42.5457Z" fill="white"/>
</svg>
