<svg width="561" height="561" viewBox="0 0 561 561" fill="none" xmlns="http://www.w3.org/2000/svg">
<path d="M9.76555e-05 140.375C9.76555e-05 163.825 8.6001 189.6 19.5251 216.95C30.4501 244.3 44.5251 270.075 55.4751 289.6C85.1751 341.175 123.45 391.95 167.2 434.125C210.95 476.3 262.525 511.475 320.325 532.575C353.925 545.85 387.525 560.7 425.025 560.7C443.775 560.7 470.35 553.675 494.55 543.5C518 533.35 539.075 517.725 546.9 498.975C550.025 491.95 553.925 482.575 556.275 471.625C558.625 461.475 560.175 451.3 560.175 444.275C560.175 440.375 560.175 436.45 559.4 435.675C557.05 430.975 551.575 427.075 545.325 423.175C531.25 416.15 528.925 413.8 507.825 401.3C485.95 388.8 463.3 374.725 443.75 364.575C434.375 359.1 428.125 356.75 425.775 356.75C413.275 356.75 397.65 373.95 384.375 392.7C370.3 411.45 354.675 428.65 343.75 428.65C338.275 428.65 332.8 426.3 326.55 422.4C320.3 418.5 314.05 415.375 310.15 413.025C241.4 373.95 195.3 327.875 156.25 259.9C151.55 252.075 140.625 235.675 140.625 227.075C140.625 216.925 154.7 205.2 168.75 192.7C182.025 180.975 196.1 166.925 196.1 149.725C196.1 147.375 194.525 140.35 191.4 130.2C184.375 109.875 175 86.45 167.175 63.8C163.275 52.85 160.15 45.05 159.35 41.15C157.775 38.8 157 35.675 156.225 31.775C155.45 27.875 153.875 24.75 153.1 21.625C150.75 14.6 146.85 9.12502 142.95 6.00002C139.05 4.42502 129.675 2.10002 120.3 1.30002C110.925 1.30002 99.9751 0.525024 95.3001 0.525024C92.9501 0.525024 89.8251 0.525016 86.7001 1.30002H76.5501C51.5501 12.25 33.5751 34.125 20.3001 59.9C7.8001 85.675 -0.0249023 114.6 -0.0249023 140.375H9.76555e-05Z" fill="white"/>
</svg>
